{"asset":{"generator":"Khronos glTF Blender I/O v1.0.11","version":"2.0"},"extensionsUsed":["KHR_texture_transform"],"extensionsRequired":["KHR_texture_transform"],"scene":0,"scenes":[{"name":"Scene","nodes":[0,3,6]}],"nodes":[{"mesh":0,"name":"PlayPause","translation":[0.0003332910710014403,0.11998036503791809,-0.0003333091735839844]},{"mesh":1,"name":"SpeedDown","translation":[-0.14000000059604645,0,0]},{"mesh":2,"name":"SpeedUp","translation":[0.14000000059604645,0,0]},{"children":[1,2],"name":"Speed","translation":[0.0003333091735839844,-0.000019632279872894287,0.00016665460134390742]},{"mesh":3,"name":"SkipBack","translation":[-0.14000000059604645,0,0]},{"mesh":4,"name":"SkipForward","translation":[0.14000000059604645,0,0]},{"children":[4,5],"name":"Skip","translation":[0.0003333273052703589,-0.12001962959766388,0.00016665460134390742]}],"materials":[{"alphaMode":"BLEND","name":"ButtonBg","pbrMetallicRoughness":{"baseColorTexture":{"index":0,"texCoord":0},"metallicFactor":0,"roughnessFactor":0.5}},{"alphaMode":"BLEND","name":"PlayPause","pbrMetallicRoughness":{"baseColorFactor":[0.7230422496795654,0.7230422496795654,0.7230422496795654,1],"baseColorTexture":{"extensions":{"KHR_texture_transform":{"offset":[0.25,0]}},"index":0,"texCoord":0},"metallicFactor":0,"roughnessFactor":0.5}},{"alphaMode":"BLEND","name":"SpeedDown","pbrMetallicRoughness":{"baseColorFactor":[0.7230422496795654,0.7230422496795654,0.7230422496795654,1],"baseColorTexture":{"extensions":{"KHR_texture_transform":{"offset":[0.75,0]}},"index":0,"texCoord":0},"metallicFactor":0,"roughnessFactor":0.5}},{"alphaMode":"BLEND","name":"SpeedUp","pbrMetallicRoughness":{"baseColorFactor":[0.7230422496795654,0.7230422496795654,0.7230422496795654,1],"baseColorTexture":{"extensions":{"KHR_texture_transform":{"offset":[0.5,0]}},"index":0,"texCoord":0},"metallicFactor":0,"roughnessFactor":0.5}},{"alphaMode":"BLEND","name":"SkipBack","pbrMetallicRoughness":{"baseColorFactor":[0.7230422496795654,0.7230422496795654,0.7230422496795654,1],"baseColorTexture":{"extensions":{"KHR_texture_transform":{"offset":[0.25,0.5]}},"index":0,"texCoord":0},"metallicFactor":0,"roughnessFactor":0.5}},{"alphaMode":"BLEND","name":"SkipForward","pbrMetallicRoughness":{"baseColorFactor":[0.7230422496795654,0.7230422496795654,0.7230422496795654,1],"baseColorTexture":{"extensions":{"KHR_texture_transform":{"offset":[0,0.5]}},"index":0,"texCoord":0},"metallicFactor":0,"roughnessFactor":0.5}}],"meshes":[{"name":"Cube.001","primitives":[{"attributes":{"POSITION":0,"NORMAL":1,"TEXCOORD_0":2},"indices":3,"material":0},{"attributes":{"POSITION":4,"NORMAL":5,"TEXCOORD_0":6},"indices":3,"material":1}]},{"name":"Cube.002","primitives":[{"attributes":{"POSITION":7,"NORMAL":8,"TEXCOORD_0":9},"indices":3,"material":0},{"attributes":{"POSITION":10,"NORMAL":11,"TEXCOORD_0":12},"indices":3,"material":2}]},{"name":"Cube.000","primitives":[{"attributes":{"POSITION":13,"NORMAL":14,"TEXCOORD_0":15},"indices":3,"material":0},{"attributes":{"POSITION":16,"NORMAL":17,"TEXCOORD_0":18},"indices":3,"material":3}]},{"name":"Cube.004","primitives":[{"attributes":{"POSITION":19,"NORMAL":20,"TEXCOORD_0":21},"indices":3,"material":0},{"attributes":{"POSITION":22,"NORMAL":23,"TEXCOORD_0":24},"indices":3,"material":4}]},{"name":"Cube.003","primitives":[{"attributes":{"POSITION":25,"NORMAL":26,"TEXCOORD_0":27},"indices":3,"material":0},{"attributes":{"POSITION":28,"NORMAL":29,"TEXCOORD_0":30},"indices":3,"material":5}]}],"textures":[{"source":0}],"images":[{"mimeType":"image/png","name":"icons","uri":"icons.png"}],"accessors":[{"bufferView":0,"componentType":5126,"count":4,"max":[0.05000001937150955,0.05000001937150955,-0.000499990361277014],"min":[-0.05000001937150955,-0.05000001937150955,-0.0005000096862204373],"type":"VEC3"},{"bufferView":1,"componentType":5126,"count":4,"type":"VEC3"},{"bufferView":2,"componentType":5126,"count":4,"type":"VEC2"},{"bufferView":3,"componentType":5123,"count":6,"type":"SCALAR"},{"bufferView":4,"componentType":5126,"count":4,"max":[0.05000001937150955,0.05000001937150955,0.0005000022938475013],"min":[-0.05000001937150955,-0.05000001937150955,0.0004999978700652719],"type":"VEC3"},{"bufferView":5,"componentType":5126,"count":4,"type":"VEC3"},{"bufferView":6,"componentType":5126,"count":4,"type":"VEC2"},{"bufferView":7,"componentType":5126,"count":4,"max":[0.05000001937150955,0.05000001937150955,-0.0004999844240956008],"min":[-0.05000001937150955,-0.05000001937150955,-0.0005000156234018505],"type":"VEC3"},{"bufferView":8,"componentType":5126,"count":4,"type":"VEC3"},{"bufferView":9,"componentType":5126,"count":4,"type":"VEC2"},{"bufferView":10,"componentType":5126,"count":4,"max":[0.05000001937150955,0.05000001937150955,0.0005000082310289145],"min":[-0.05000001937150955,-0.05000001937150955,0.0004999919328838587],"type":"VEC3"},{"bufferView":11,"componentType":5126,"count":4,"type":"VEC3"},{"bufferView":12,"componentType":5126,"count":4,"type":"VEC2"},{"bufferView":13,"componentType":5126,"count":4,"max":[0.05000001937150955,0.05000001937150955,-0.0004999844240956008],"min":[-0.05000001937150955,-0.05000001937150955,-0.0005000156234018505],"type":"VEC3"},{"bufferView":14,"componentType":5126,"count":4,"type":"VEC3"},{"bufferView":15,"componentType":5126,"count":4,"type":"VEC2"},{"bufferView":16,"componentType":5126,"count":4,"max":[0.05000001937150955,0.05000001937150955,0.0005000082310289145],"min":[-0.05000001937150955,-0.05000001937150955,0.0004999919328838587],"type":"VEC3"},{"bufferView":17,"componentType":5126,"count":4,"type":"VEC3"},{"bufferView":18,"componentType":5126,"count":4,"type":"VEC2"},{"bufferView":19,"componentType":5126,"count":4,"max":[0.05000001937150955,0.05000001937150955,-0.0004999844240956008],"min":[-0.05000001937150955,-0.05000001937150955,-0.0005000156234018505],"type":"VEC3"},{"bufferView":20,"componentType":5126,"count":4,"type":"VEC3"},{"bufferView":21,"componentType":5126,"count":4,"type":"VEC2"},{"bufferView":22,"componentType":5126,"count":4,"max":[0.05000001937150955,0.05000001937150955,0.0005000082310289145],"min":[-0.05000001937150955,-0.05000001937150955,0.0004999919328838587],"type":"VEC3"},{"bufferView":23,"componentType":5126,"count":4,"type":"VEC3"},{"bufferView":24,"componentType":5126,"count":4,"type":"VEC2"},{"bufferView":25,"componentType":5126,"count":4,"max":[0.05000001937150955,0.05000001937150955,-0.0004999844240956008],"min":[-0.05000001937150955,-0.05000001937150955,-0.0005000156234018505],"type":"VEC3"},{"bufferView":26,"componentType":5126,"count":4,"type":"VEC3"},{"bufferView":27,"componentType":5126,"count":4,"type":"VEC2"},{"bufferView":28,"componentType":5126,"count":4,"max":[0.05000001937150955,0.05000001937150955,0.0005000082310289145],"min":[-0.05000001937150955,-0.05000001937150955,0.0004999919328838587],"type":"VEC3"},{"bufferView":29,"componentType":5126,"count":4,"type":"VEC3"},{"bufferView":30,"componentType":5126,"count":4,"type":"VEC2"}],"bufferViews":[{"buffer":0,"byteLength":48,"byteOffset":0},{"buffer":0,"byteLength":48,"byteOffset":48},{"buffer":0,"byteLength":32,"byteOffset":96},{"buffer":0,"byteLength":12,"byteOffset":128},{"buffer":0,"byteLength":48,"byteOffset":140},{"buffer":0,"byteLength":48,"byteOffset":188},{"buffer":0,"byteLength":32,"byteOffset":236},{"buffer":0,"byteLength":48,"byteOffset":268},{"buffer":0,"byteLength":48,"byteOffset":316},{"buffer":0,"byteLength":32,"byteOffset":364},{"buffer":0,"byteLength":48,"byteOffset":396},{"buffer":0,"byteLength":48,"byteOffset":444},{"buffer":0,"byteLength":32,"byteOffset":492},{"buffer":0,"byteLength":48,"byteOffset":524},{"buffer":0,"byteLength":48,"byteOffset":572},{"buffer":0,"byteLength":32,"byteOffset":620},{"buffer":0,"byteLength":48,"byteOffset":652},{"buffer":0,"byteLength":48,"byteOffset":700},{"buffer":0,"byteLength":32,"byteOffset":748},{"buffer":0,"byteLength":48,"byteOffset":780},{"buffer":0,"byteLength":48,"byteOffset":828},{"buffer":0,"byteLength":32,"byteOffset":876},{"buffer":0,"byteLength":48,"byteOffset":908},{"buffer":0,"byteLength":48,"byteOffset":956},{"buffer":0,"byteLength":32,"byteOffset":1004},{"buffer":0,"byteLength":48,"byteOffset":1036},{"buffer":0,"byteLength":48,"byteOffset":1084},{"buffer":0,"byteLength":32,"byteOffset":1132},{"buffer":0,"byteLength":48,"byteOffset":1164},{"buffer":0,"byteLength":48,"byteOffset":1212},{"buffer":0,"byteLength":32,"byteOffset":1260}],"buffers":[{"byteLength":1292,"uri":"data:application/octet-stream;base64,"}]}